<?xml version="1.0" encoding="utf-8"?>
<!-- Generator: Adobe Illustrator 18.1.0, SVG Export Plug-In . SVG Version: 6.00 Build 0)  -->
<!DOCTYPE svg PUBLIC "-//W3C//DTD SVG 1.1//EN" "http://www.w3.org/Graphics/SVG/1.1/DTD/svg11.dtd">
<svg version="1.1" id="Layer_1" xmlns="http://www.w3.org/2000/svg" xmlns:xlink="http://www.w3.org/1999/xlink" x="0px" y="0px"
	 viewBox="0 0 160.2 23.5" enable-background="new 0 0 160.2 23.5" xml:space="preserve">
<path fill-rule="evenodd" clip-rule="evenodd" fill="#FFFFFF" d="M87.9,10.9c0,0-1.6-1-2.5-1.3c0,0-3-1.4-3.6-2c0,0-1.2-1.1-0.5-2.4
	c0,0,0.3-0.8,1.5-0.8c0,0,1.6,0.1,1.6,1.4v1.9h5.7l0-2.7c0,0,0.4-4.5-6.8-4.7c0,0-5.7-0.4-7.3,2.7c0,0-0.6,0.7-0.6,3v1.7
	c0,0-0.1,2,0.9,3.2c0,0,0.6,0.8,2,1.8c0,0,2.9,1.5,4.6,2.4c0,0,1.7,1,1.5,2.6c0,0-0.1,1.6-1.8,1.5c0,0-1.5-0.1-1.5-1.6v-1.9H75v2.7
	c0,0-0.2,5.2,7.7,5.2c0,0,7.5,0.2,7.9-5.3V16C90.5,16,90.8,12.6,87.9,10.9L87.9,10.9z"/>
<polygon fill-rule="evenodd" clip-rule="evenodd" fill="#FFFFFF" points="58.5,0.8 56.6,12.8 56.1,12.8 54.3,0.9 44.7,0.9 
	44.3,22.7 49.9,22.7 50,6.3 50.4,6.3 53.4,22.7 59.4,22.7 62.4,6.3 62.8,6.3 62.9,22.7 68.6,22.7 68,0.8 58.5,0.8 "/>
<polygon fill-rule="evenodd" clip-rule="evenodd" fill="#FFFFFF" points="24.8,0.9 21,22.7 27.1,22.7 29.3,5.8 29.8,5.8 32.1,22.7 
	38.2,22.7 34.4,0.9 24.8,0.9 "/>
<path fill-rule="evenodd" clip-rule="evenodd" fill="#FFFFFF" d="M152.9,10.6v3.2h1.6v3.4c0,1.7-1.4,1.7-1.4,1.7
	c-1.8,0-1.7-1.6-1.7-1.6V5.4c0-1.2,1.6-1.3,1.6-1.3c1.5,0,1.5,1.5,1.5,1.5v1.8h5.7c0.2-3.5-0.5-4.4-0.5-4.4c-1.4-3.2-6.8-3-6.8-3
	c-8.3,0-7.4,6.4-7.4,6.4v11.5c0.2,6,8.3,5.4,8.5,5.4c3.6-0.4,4.7-1.6,4.7-1.6c1-0.8,1.3-1.8,1.3-1.8c0.3-0.6,0.4-2.5,0.4-2.5v-6.8
	H152.9L152.9,10.6z"/>
<polygon fill-rule="evenodd" clip-rule="evenodd" fill="#FFFFFF" points="133.8,14.1 133.6,14.1 127.7,0.8 120.7,0.8 120.7,22.7 
	126.4,22.7 126.1,9.4 126.3,9.4 132.4,22.7 139.1,22.7 139.1,0.8 133.4,0.8 133.8,14.1 "/>
<path fill-rule="evenodd" clip-rule="evenodd" fill="#FFFFFF" d="M106.9,17.3c0,0,0.1,1.8-1.6,1.8c0,0-1.8,0.1-1.8-1.8l0-16.5h-6.2
	v16.3c0,0-0.6,6.2,8.1,6.2c0,0,7.6,0.1,7.6-5.9V0.8h-6.1V17.3L106.9,17.3z"/>
<path fill-rule="evenodd" clip-rule="evenodd" fill="#FFFFFF" d="M12.9,10.9c0,0-1.6-1-2.5-1.3c0,0-3-1.4-3.6-2c0,0-1.2-1.1-0.5-2.4
	c0,0,0.3-0.8,1.5-0.8c0,0,1.6,0.1,1.6,1.4v1.9h5.7l0-2.7c0,0,0.4-4.5-6.8-4.7c0,0-0.5,0-1.3,0c0,0-4.4,0.2-5.9,2.6c0,0,0,0,0,0
	c0,0-0.6,0.7-0.6,3v1.7c0,0-0.1,2,0.9,3.2c0,0,0.6,0.8,2,1.8c0,0,2.8,1.5,4.6,2.4c0,0,1.7,1,1.5,2.6c0,0-0.1,1.6-1.8,1.5
	c0,0-1.5-0.1-1.5-1.6v-1.9H0v2.7c0,0-0.2,5.2,7.7,5.2c0,0,7.5,0.2,7.9-5.3V16C15.5,16,15.8,12.6,12.9,10.9L12.9,10.9z"/>
</svg>
