<?xml version="1.0" encoding="utf-8"?>
<!-- Generator: Adobe Illustrator 18.0.0, SVG Export Plug-In . SVG Version: 6.00 Build 0)  -->
<!DOCTYPE svg PUBLIC "-//W3C//DTD SVG 1.1//EN" "http://www.w3.org/Graphics/SVG/1.1/DTD/svg11.dtd">
<svg version="1.1" id="Layer_1" xmlns="http://www.w3.org/2000/svg" xmlns:xlink="http://www.w3.org/1999/xlink" x="0px" y="0px"
	 viewBox="0 0 48 48" enable-background="new 0 0 48 48" xml:space="preserve">
<g>
	<path fill="#231F20" d="M19.9,15.6l-4-9C15.8,6.2,15.4,6,15,6s-0.8,0.2-0.9,0.6l-4,9c0,0,0,0,0,0C10,15.7,10,15.9,10,16v27
		c0,2.8,2.2,5,5,5s5-2.2,5-5V16C20,15.9,20,15.7,19.9,15.6C19.9,15.6,19.9,15.6,19.9,15.6z M14,17v19h-2V17H14z M18,17v19h-2V17H18z
		 M12,38h6v2h-6V38z M15,9.5l2.5,5.5h-4.9L15,9.5z M15,46c-1.7,0-3-1.3-3-3v-1h6v1C18,44.7,16.7,46,15,46z"/>
	<path fill="#231F20" d="M37,0H25c-0.6,0-1,0.4-1,1v46c0,0.6,0.4,1,1,1h12c0.6,0,1-0.4,1-1V1C38,0.4,37.6,0,37,0z M36,46H26v-6h3
		c0.6,0,1-0.4,1-1s-0.4-1-1-1h-3v-6h3c0.6,0,1-0.4,1-1s-0.4-1-1-1h-3v-6h3c0.6,0,1-0.4,1-1s-0.4-1-1-1h-3v-6h3c0.6,0,1-0.4,1-1
		s-0.4-1-1-1h-3V8h3c0.6,0,1-0.4,1-1s-0.4-1-1-1h-3V2h10V46z"/>
</g>
</svg>
