<?xml version="1.0" encoding="utf-8"?>
<!-- Generator: Adobe Illustrator 19.1.0, SVG Export Plug-In . SVG Version: 6.00 Build 0)  -->
<svg version="1.1" baseProfile="tiny" id="Layer_1" xmlns="http://www.w3.org/2000/svg" xmlns:xlink="http://www.w3.org/1999/xlink"
	 x="0px" y="0px" viewBox="-3 5 16 16" xml:space="preserve">
<path fill-rule="evenodd" d="M12.8,11.4c-0.1-0.5-0.3-1-0.5-1.5c-0.2-0.5-0.4-0.9-0.7-1.4c-0.3-0.4-0.6-0.8-1-1.2
	c-0.4-0.4-0.8-0.7-1.2-1C9,6.1,8.6,5.8,8.1,5.6c-0.5-0.2-1-0.4-1.5-0.5C6.1,5.1,5.5,5,5,5C4.5,5,3.9,5.1,3.4,5.2
	c-0.5,0.1-1,0.3-1.5,0.5C1.4,5.8,1,6.1,0.5,6.4C0.1,6.7-0.3,7-0.7,7.3c-0.4,0.4-0.7,0.8-1,1.2C-1.9,9-2.2,9.4-2.4,9.9
	c-0.2,0.5-0.4,1-0.5,1.5C-2.9,11.9-3,12.5-3,13c0,0.5,0.1,1.1,0.2,1.6c0.1,0.5,0.3,1,0.5,1.5c0.2,0.5,0.4,0.9,0.7,1.4
	c0.3,0.4,0.6,0.8,1,1.2c0.4,0.4,0.8,0.7,1.2,1c0.4,0.3,0.9,0.5,1.4,0.7c0.5,0.2,1,0.4,1.5,0.5C3.9,20.9,4.5,21,5,21
	c0.5,0,1.1-0.1,1.6-0.2c0.5-0.1,1-0.3,1.5-0.5c0.5-0.2,0.9-0.4,1.4-0.7c0.4-0.3,0.8-0.6,1.2-1c0.4-0.4,0.7-0.8,1-1.2
	c0.3-0.4,0.5-0.9,0.7-1.4c0.2-0.5,0.4-1,0.5-1.5c0.1-0.5,0.2-1.1,0.2-1.6C13,12.5,12.9,11.9,12.8,11.4z M11.8,12.9
	c-0.1,0-2.4-0.5-4.8-0.2c0-0.1-0.1-0.2-0.1-0.4c-0.1-0.3-0.3-0.7-0.5-1c2.7-1.1,3.8-2.7,3.8-2.7C11.2,9.8,11.8,11.3,11.8,12.9z
	 M9.5,7.9c0,0-1,1.5-3.6,2.5c-1.2-2.1-2.5-3.9-2.6-4C3.9,6.2,4.4,6.2,5,6.2C6.7,6.2,8.3,6.8,9.5,7.9z M3.4,6.4
	C3.4,6.4,3.4,6.4,3.4,6.4C3.4,6.4,3.4,6.4,3.4,6.4C3.3,6.4,3.4,6.4,3.4,6.4z M2.1,6.8c0.1,0.1,1.4,1.8,2.5,3.9
	c-3.3,0.9-6.1,0.8-6.3,0.8C-1.2,9.5,0.2,7.7,2.1,6.8z M-1.8,13c0-0.1,0-0.1,0-0.2c0.1,0,3.5,0.1,7-1c0.2,0.4,0.4,0.8,0.6,1.2
	c-0.1,0-0.2,0.1-0.3,0.1c-3.7,1.2-5.6,4.5-5.6,4.5s0,0,0,0C-1.2,16.4-1.8,14.8-1.8,13z M5,19.8c-1.7,0-3.2-0.6-4.4-1.6
	c0.1,0.1,0.2,0.1,0.2,0.1s1.3-2.9,5.4-4.3c0,0,0,0,0,0c1,2.5,1.4,4.6,1.5,5.2C6.8,19.6,5.9,19.8,5,19.8z M8.8,18.7
	c-0.1-0.4-0.4-2.4-1.3-4.9c2.2-0.4,4.1,0.3,4.3,0.3C11.4,16,10.4,17.6,8.8,18.7z"/>
</svg>
