<?xml version="1.0" encoding="utf-8"?>
<!-- Generator: Adobe Illustrator 19.1.0, SVG Export Plug-In . SVG Version: 6.00 Build 0)  -->
<svg version="1.1" baseProfile="tiny" id="Layer_1" xmlns="http://www.w3.org/2000/svg" xmlns:xlink="http://www.w3.org/1999/xlink"
	 x="0px" y="0px" viewBox="-3 5 16 16" xml:space="preserve">
<path fill-rule="evenodd" d="M5,5c-4.4,0-8,3.6-8,8c0,3.5,2.3,6.5,5.5,7.6C2.9,20.7,3,20.4,3,20.2c0-0.2,0-0.7,0-1.4
	c-2.2,0.5-2.7-1.1-2.7-1.1c-0.4-0.9-0.9-1.2-0.9-1.2c-0.7-0.5,0.1-0.5,0.1-0.5c0.8,0.1,1.2,0.8,1.2,0.8c0.7,1.2,1.9,0.9,2.3,0.7
	c0.1-0.5,0.3-0.9,0.5-1.1c-1.8-0.2-3.6-0.9-3.6-4c0-0.9,0.3-1.6,0.8-2.1c-0.1-0.2-0.4-1,0.1-2.1c0,0,0.7-0.2,2.2,0.8
	C3.6,9,4.3,8.9,5,8.9c0.7,0,1.4,0.1,2,0.3c1.5-1,2.2-0.8,2.2-0.8c0.4,1.1,0.2,1.9,0.1,2.1c0.5,0.6,0.8,1.3,0.8,2.1
	c0,3.1-1.9,3.7-3.7,3.9C6.7,16.8,7,17.3,7,18c0,1.1,0,1.9,0,2.2c0,0.2,0.1,0.5,0.6,0.4c3.2-1.1,5.5-4.1,5.5-7.6C13,8.6,9.4,5,5,5z"
	/>
</svg>
