<?xml version="1.0" encoding="utf-8"?>
<!-- Generator: Adobe Illustrator 18.0.0, SVG Export Plug-In . SVG Version: 6.00 Build 0)  -->
<!DOCTYPE svg PUBLIC "-//W3C//DTD SVG 1.1//EN" "http://www.w3.org/Graphics/SVG/1.1/DTD/svg11.dtd">
<svg version="1.1" id="Layer_1" xmlns="http://www.w3.org/2000/svg" xmlns:xlink="http://www.w3.org/1999/xlink" x="0px" y="0px"
	 viewBox="0 0 16 16" enable-background="new 0 0 16 16" xml:space="preserve">
<path id="Instagram_2_" fill-rule="evenodd" clip-rule="evenodd" d="M13.4,6.9h-1.2c0.1,0.3,0.1,0.7,0.1,1.1c0,2.4-1.9,4.3-4.3,4.3
	c-2.4,0-4.3-1.9-4.3-4.3c0-0.4,0.1-0.7,0.1-1.1H2.6v5.9c0,0.3,0.2,0.5,0.5,0.5h9.7c0.3,0,0.5-0.2,0.5-0.5V6.9z M13.4,3.2
	c0-0.3-0.2-0.5-0.5-0.5h-1.6c-0.3,0-0.5,0.2-0.5,0.5v1.6c0,0.3,0.2,0.5,0.5,0.5h1.6c0.3,0,0.5-0.2,0.5-0.5V3.2z M8,5.3
	C6.5,5.3,5.3,6.5,5.3,8c0,1.5,1.2,2.7,2.7,2.7c1.5,0,2.7-1.2,2.7-2.7C10.7,6.5,9.5,5.3,8,5.3 M13.4,15H2.6C1.7,15,1,14.3,1,13.4V2.6
	C1,1.7,1.7,1,2.6,1h10.8C14.3,1,15,1.7,15,2.6v10.8C15,14.3,14.3,15,13.4,15"/>
</svg>
