<?xml version="1.0" encoding="utf-8"?>
<!-- Generator: Adobe Illustrator 18.0.0, SVG Export Plug-In . SVG Version: 6.00 Build 0)  -->
<!DOCTYPE svg PUBLIC "-//W3C//DTD SVG 1.1//EN" "http://www.w3.org/Graphics/SVG/1.1/DTD/svg11.dtd">
<svg version="1.1" id="Layer_1" xmlns="http://www.w3.org/2000/svg" xmlns:xlink="http://www.w3.org/1999/xlink" x="0px" y="0px"
	 viewBox="0 0 16 16" enable-background="new 0 0 16 16" xml:space="preserve">
<path id="LinkedIn_1_" d="M16,9.7v5.9h-3.4v-5.5c0-1.4-0.5-2.3-1.7-2.3C9.9,7.8,9.3,8.4,9.1,9C9,9.3,9,9.6,9,9.9v5.8H5.5
	c0,0,0-9.3,0-10.3H9v1.5c0,0,0,0,0,0h0v0c0.5-0.7,1.3-1.7,3.1-1.7C14.3,5.1,16,6.6,16,9.7z M1.9,0.4C0.8,0.4,0,1.1,0,2.1
	c0,1,0.7,1.8,1.9,1.8h0c1.2,0,1.9-0.8,1.9-1.8C3.8,1.1,3.1,0.4,1.9,0.4z M0.2,15.6h3.4V5.3H0.2V15.6z"/>
</svg>
