<?xml version="1.0" encoding="utf-8"?>
<!-- Generator: Adobe Illustrator 18.0.0, SVG Export Plug-In . SVG Version: 6.00 Build 0)  -->
<!DOCTYPE svg PUBLIC "-//W3C//DTD SVG 1.1//EN" "http://www.w3.org/Graphics/SVG/1.1/DTD/svg11.dtd">
<svg version="1.1" id="Layer_1" xmlns="http://www.w3.org/2000/svg" xmlns:xlink="http://www.w3.org/1999/xlink" x="0px" y="0px"
	 viewBox="0 0 22 22" enable-background="new 0 0 22 22" xml:space="preserve">
<g>
	<g>
		<path fill-rule="evenodd" clip-rule="evenodd" d="M21,9h-4V2H5v7H1l-1,1v7l1,1h4.3L6,20h10l0.7-2H21l1-1v-7L21,9z M7,4h8v5H7V4z
			 M14,18H8c-0.6,0-1-0.4-1-1c0-0.6,0.4-1,1-1h6c0.6,0,1,0.4,1,1C15,17.6,14.6,18,14,18z M20,15c0,0.6-0.4,1-1,1h-2v-2H5v2H3
			c-0.6,0-1-0.4-1-1v-3c0-0.6,0.4-1,1-1h16c0.6,0,1,0.4,1,1V15z"/>
	</g>
</g>
</svg>
