<?xml version="1.0" encoding="utf-8"?>
<!-- Generator: Adobe Illustrator 18.0.0, SVG Export Plug-In . SVG Version: 6.00 Build 0)  -->
<!DOCTYPE svg PUBLIC "-//W3C//DTD SVG 1.1//EN" "http://www.w3.org/Graphics/SVG/1.1/DTD/svg11.dtd">
<svg version="1.1" id="Layer_1" xmlns="http://www.w3.org/2000/svg" xmlns:xlink="http://www.w3.org/1999/xlink" x="0px" y="0px"
	 viewBox="0 0 48 48" enable-background="new 0 0 48 48" xml:space="preserve">
<g>
	<path fill="#231F20" d="M29,10H17c-0.6,0-1,0.4-1,1v8c0,0.6,0.4,1,1,1h12c0.6,0,1-0.4,1-1v-8C30,10.4,29.6,10,29,10z M28,18H18v-6
		h10V18z"/>
	<path fill="#231F20" d="M43,6h-5V3c0-0.6-0.4-1-1-1H7C6.4,2,6,2.4,6,3v5H5C4.4,8,4,8.4,4,9s0.4,1,1,1h1v4H5c-0.6,0-1,0.4-1,1
		s0.4,1,1,1h1v4H5c-0.6,0-1,0.4-1,1s0.4,1,1,1h1v4H5c-0.6,0-1,0.4-1,1s0.4,1,1,1h1v4H5c-0.6,0-1,0.4-1,1s0.4,1,1,1h1v4H5
		c-0.6,0-1,0.4-1,1s0.4,1,1,1h1v5c0,0.6,0.4,1,1,1h30c0.6,0,1-0.4,1-1v-5h5c0.6,0,1-0.4,1-1v-8v-8v-8V7C44,6.4,43.6,6,43,6z M42,22
		h-4v-6h4V22z M38,24h4v6h-4V24z M42,8v6h-4V8H42z M36,44H8v-4h1c0.6,0,1-0.4,1-1s-0.4-1-1-1H8v-4h1c0.6,0,1-0.4,1-1s-0.4-1-1-1H8
		v-4h1c0.6,0,1-0.4,1-1s-0.4-1-1-1H8v-4h1c0.6,0,1-0.4,1-1s-0.4-1-1-1H8v-4h1c0.6,0,1-0.4,1-1s-0.4-1-1-1H8v-4h1c0.6,0,1-0.4,1-1
		S9.6,8,9,8H8V4h28v3v8v8v8v8V44z M42,38h-4v-6h4V38z"/>
</g>
</svg>
