<?xml version="1.0" encoding="utf-8"?>
<!-- Generator: Adobe Illustrator 18.0.0, SVG Export Plug-In . SVG Version: 6.00 Build 0)  -->
<!DOCTYPE svg PUBLIC "-//W3C//DTD SVG 1.1//EN" "http://www.w3.org/Graphics/SVG/1.1/DTD/svg11.dtd">
<svg version="1.1" id="Layer_1" xmlns="http://www.w3.org/2000/svg" xmlns:xlink="http://www.w3.org/1999/xlink" x="0px" y="0px"
	 viewBox="0 0 20 20" enable-background="new 0 0 20 20" xml:space="preserve">
<path d="M19,3.8c-0.7,0.3-1.4,0.5-2.1,0.6c0.8-0.5,1.3-1.2,1.6-2.1C17.8,2.7,17,3,16.2,3.2C15.5,2.5,14.5,2,13.5,2
	c-2,0-3.7,1.7-3.7,3.8c0,0.3,0,0.6,0.1,0.9C6.8,6.5,4.1,5,2.3,2.7C1.9,3.3,1.8,3.9,1.8,4.6c0,1.3,0.7,2.5,1.6,3.2
	c-0.6,0-1.2-0.2-1.7-0.5c0,0,0,0,0,0c0,1.8,1.3,3.4,3,3.7c-0.3,0.1-0.6,0.1-1,0.1c-0.2,0-0.5,0-0.7-0.1c0.5,1.5,1.8,2.6,3.4,2.6
	c-1.3,1-2.9,1.6-4.6,1.6c-0.3,0-0.6,0-0.9-0.1C2.6,16.4,4.6,17,6.7,17c6.8,0,10.5-5.8,10.5-10.8c0-0.2,0-0.3,0-0.5
	C17.9,5.2,18.5,4.5,19,3.8z"/>
</svg>
