<?xml version="1.0" encoding="utf-8"?>
<!-- Generator: Adobe Illustrator 18.0.0, SVG Export Plug-In . SVG Version: 6.00 Build 0)  -->
<!DOCTYPE svg PUBLIC "-//W3C//DTD SVG 1.1//EN" "http://www.w3.org/Graphics/SVG/1.1/DTD/svg11.dtd">
<svg version="1.1" id="Layer_1" xmlns="http://www.w3.org/2000/svg" xmlns:xlink="http://www.w3.org/1999/xlink" x="0px" y="0px"
	 viewBox="0 0 16 16" enable-background="new 0 0 16 16" xml:space="preserve">
<path id="Tumblr_1_" d="M9.4,13.1c-0.3-0.2-0.5-0.4-0.6-0.7c-0.1-0.3-0.1-0.8-0.1-1.7V6.6h3.7V3.7H8.7V0H6.4C6.3,0.8,6.1,1.5,5.8,2
	C5.6,2.6,5.2,3,4.8,3.4C4.3,3.8,3.6,4.1,2.9,4.3v2.3h2.2v5.6c0,0.7,0.1,1.3,0.2,1.7c0.2,0.4,0.4,0.7,0.8,1.1
	c0.4,0.3,0.9,0.6,1.5,0.8c0.6,0.2,1,0.3,1.7,0.3c0.6,0,1.3-0.1,1.8-0.2c0.6-0.1,1.2-0.4,1.9-0.7v-2.5c-0.8,0.5-1.6,0.8-2.4,0.8
	C10.2,13.4,9.8,13.3,9.4,13.1z"/>
</svg>
