<?xml version="1.0" encoding="utf-8"?>
<!-- Generator: Adobe Illustrator 17.1.0, SVG Export Plug-In . SVG Version: 6.00 Build 0)  -->
<!DOCTYPE svg PUBLIC "-//W3C//DTD SVG 1.1//EN" "http://www.w3.org/Graphics/SVG/1.1/DTD/svg11.dtd">
<svg version="1.1" id="icon1" xmlns="http://www.w3.org/2000/svg" xmlns:xlink="http://www.w3.org/1999/xlink" x="0px" y="0px"
	 viewBox="0 0 140 140" enable-background="new 0 0 140 140" xml:space="preserve">
<path id="box" fill="#CCCCCC" d="M71,31v-6h-2v6H20v4h4v61h21v3h24v4.4l-17.5,9.7l1,1.7l17.5-9.7l17.5,9.7l1-1.7L71,103.4V99h24v-3
	h21V35h4v-4H71z M93,97H71h-2H47v-4h46V97z M114,94H95v-3H45v3H26V35h88V94z"/>
<g class="section3">
	<polygon fill="#CCCCCC" points="74,80 74,78 76,78 76,76 74,76 74,74 76,74 76,72 74,72 74,70 76,70 76,68 74,68 74,66 76,66 
		76,64 74,64 74,62 76,62 76,60 74,60 74,57 72,57 72,82 110,82 110,80" class="section3"/>
	<path fill="#CCCCCC" d="M84,72h-6v7h6V72z M82,77h-2v-3h2V77z" class="section3"/>
	<path fill="#CCCCCC" d="M92,67h-6v12h6V67z M90,77h-2v-8h2V77z" class="section3"/>
	<path fill="#CCCCCC" d="M100,65h-6v14h6V65z M98,77h-2V67h2V77z" class="section3"/>
	<path fill="#CCCCCC" d="M108,59h-6v20h6V59z M106,77h-2V61h2V77z" class="section3"/>
</g>
<g class="section2">
	<rect x="30" y="80" fill="#007AFF" width="36" height="2" class="section2"/>
	<rect x="30" y="72" fill="#007AFF" width="16" height="2" class="section2"/>
	<rect x="30" y="76" fill="#007AFF" width="16" height="2" class="section2"/>
	<rect x="50" y="72" fill="#007AFF" width="16" height="2" class="section2"/>
	<rect x="50" y="76" fill="#007AFF" width="16" height="2" class="section2"/>
	<path fill="#007AFF" d="M30,53v17h36V53H30z M64,68H32V55h32V68z" class="section2"/>
</g>
<g class="section1">
	<rect x="30" y="39" fill="#CCCCCC" width="67" height="2" class="section1"/>
	<rect x="30" y="43" fill="#CCCCCC" width="45" height="2" class="section1"/>
	<rect x="30" y="47" fill="#CCCCCC" width="49" height="2" class="section1"/>
</g>
<polygon id="stick" class="stick" fill="#007AFF" points="89.5,99.1 88.6,104.2 83.6,105 49,65.8 50.5,64.4 "/>
</svg>
