<?xml version="1.0" encoding="utf-8"?>
<!-- Generator: Adobe Illustrator 18.0.0, SVG Export Plug-In . SVG Version: 6.00 Build 0)  -->
<!DOCTYPE svg PUBLIC "-//W3C//DTD SVG 1.1//EN" "http://www.w3.org/Graphics/SVG/1.1/DTD/svg11.dtd">
<svg version="1.1" id="Layer_1" xmlns="http://www.w3.org/2000/svg" xmlns:xlink="http://www.w3.org/1999/xlink" x="0px" y="0px"
	 viewBox="0 0 140 140" enable-background="new 0 0 140 140" xml:space="preserve">
<g id="phone">
	<rect x="38" y="38" fill="#FFFFFF" stroke="#CCCCCC" stroke-width="2" stroke-miterlimit="10" width="56" height="62"/>
	<rect x="38" y="24" fill="#FFFFFF" stroke="#CCCCCC" stroke-width="2" stroke-miterlimit="10" width="56" height="14"/>
	<rect x="38" y="100" fill="#FFFFFF" stroke="#CCCCCC" stroke-width="2" stroke-miterlimit="10" width="56" height="16"/>
	<line fill="#FFFFFF" stroke="#CCCCCC" stroke-width="2" stroke-miterlimit="10" x1="61" y1="31" x2="71" y2="31"/>
	<circle fill="#FFFFFF" stroke="#CCCCCC" stroke-width="2" stroke-miterlimit="10" cx="66" cy="108" r="3"/>
</g>
<g id="content">
	<rect x="44" y="86" fill="#FFFFFF" stroke="#CCCCCC" stroke-width="2" stroke-miterlimit="10" width="12" height="10"/>
	<rect x="60" y="86" fill="#FFFFFF" stroke="#CCCCCC" stroke-width="2" stroke-miterlimit="10" width="12" height="10"/>
	<rect x="76" y="86" fill="#FFFFFF" stroke="#CCCCCC" stroke-width="2" stroke-miterlimit="10" width="12" height="10"/>
	<circle fill="#FFFFFF" stroke="#CCCCCC" stroke-width="2" stroke-miterlimit="10" cx="66" cy="54.5" r="4.5"/>
	<line fill="none" stroke="#CCCCCC" stroke-width="2" stroke-miterlimit="10" x1="50" y1="63" x2="82" y2="63"/>
	<line fill="none" stroke="#CCCCCC" stroke-width="2" stroke-miterlimit="10" x1="58" y1="67" x2="74" y2="67"/>
	<rect x="44" y="72" fill="#FFFFFF" stroke="#CCCCCC" stroke-width="2" stroke-miterlimit="10" width="12" height="10"/>
	<rect x="60" y="72" fill="#FFFFFF" stroke="#CCCCCC" stroke-width="2" stroke-miterlimit="10" width="12" height="10"/>
	<rect x="76" y="72" fill="#FFFFFF" stroke="#CCCCCC" stroke-width="2" stroke-miterlimit="10" width="12" height="10"/>
</g>
<g id="nav">
	<rect x="39" y="37" fill="#007AFF" width="54" height="9"/>
	<rect x="83" y="39" fill="#FFFFFF" width="6" height="1"/>
	<rect x="83" y="41" fill="#FFFFFF" width="6" height="1"/>
	<rect x="83" y="43" fill="#FFFFFF" width="6" height="1"/>
	<circle fill="#FFFFFF" cx="45.5" cy="41.5" r="2.5"/>
</g>
<g id="cog">
	<circle fill="#FFFFFF" cx="93.5" cy="96.5" r="15.5"/>
	<g>
		<path fill="none" stroke="#007AFF" stroke-width="2" stroke-miterlimit="10" d="M101.8,98h3.2v-3h-3.2c-0.2-0.9-0.6-2.2-1-2.9
			l2.3-2.3l-2.8-2.8l-2.3,2.3c-0.7-0.5-2.1-0.8-2.9-1V85h-3v3.2c-0.9,0.2-2.2,0.6-2.9,1L86.8,87L84,89.8l2.3,2.3
			c-0.5,0.7-0.8,2.1-1,2.9H82v3h3.2c0.2,0.9,0.6,2.2,1,2.9l-2.3,2.3l2.8,2.8l2.3-2.3c0.7,0.5,2.1,0.8,2.9,1v3.2h3v-3.2
			c0.9-0.2,2.2-0.6,2.9-1l2.3,2.3l2.8-2.8l-2.3-2.3C101.2,100.2,101.5,98.9,101.8,98z"/>
		<circle fill="none" stroke="#007AFF" stroke-width="2" stroke-miterlimit="10" cx="93.5" cy="96.5" r="4.5"/>
	</g>
</g>
</svg>
