<?xml version="1.0" encoding="utf-8"?>
<!-- Generator: Adobe Illustrator 17.1.0, SVG Export Plug-In . SVG Version: 6.00 Build 0)  -->
<!DOCTYPE svg PUBLIC "-//W3C//DTD SVG 1.1//EN" "http://www.w3.org/Graphics/SVG/1.1/DTD/svg11.dtd">
<svg version="1.1" id="Layer_1" xmlns="http://www.w3.org/2000/svg" xmlns:xlink="http://www.w3.org/1999/xlink" x="0px" y="0px"
	 viewBox="0 0 140 140" enable-background="new 0 0 140 140" xml:space="preserve">
		<g id="line1" class="line1">
			<g>
				<rect x="39" y="45" fill="#007AFF" width="9" height="2"/>
			</g>
			<g>
				<rect x="70" y="49" fill="#CCCCCC" width="11" height="2"/>
			</g>
			<g>
				<rect x="83" y="49" fill="#CCCCCC" width="16" height="2"/>
			</g>
			<g>
				<rect x="43" y="49" fill="#CCCCCC" width="25" height="2"/>
			</g>
		</g>
		 <g id="line2" class="line2">
			<g>
				<rect x="90" y="53" fill="#CCCCCC" width="14" height="2"/>
			</g>
			<g>
				<rect x="63" y="53" fill="#CCCCCC" width="25" height="2"/>
			</g>
			<g>
				<rect x="43" y="53" fill="#CCCCCC" width="18" height="2"/>
			</g>
			<g>
				<rect x="57" y="57" fill="#CCCCCC" width="22" height="2"/>
			</g>
			<g>
				<rect x="43" y="57" fill="#CCCCCC" width="12" height="2"/>
			</g>
		</g>
		<g id="line3" class="line3">
			<g>
				<rect x="39" y="61" fill="#007AFF" width="9" height="2"/>
			</g>
			<g>
				<rect x="39" y="65" fill="#007AFF" width="15" height="2"/>
			</g>
		</g>
		<g id="line4" class="line4">
			<g>
				<rect x="46" y="69" fill="#CCCCCC" width="10" height="2"/>
			</g>
			<g>
				<rect x="58" y="69" fill="#CCCCCC" width="43" height="2"/>
			</g>
			<g>
				<rect x="103" y="69" fill="#CCCCCC" width="9" height="2"/>
			</g>
			<g>
				<rect x="78" y="73" fill="#CCCCCC" width="38" height="2"/>
			</g>
			<g>
				<rect x="52" y="73" fill="#CCCCCC" width="24" height="2"/>
			</g>
		</g>
		<g id="line5" class="line5">
			<g>
				<rect x="103" y="81" fill="#CCCCCC" width="13" height="2"/>
			</g>
			<g>
				<rect x="76" y="81" fill="#CCCCCC" width="25" height="2"/>
			</g>
			<g>
				<rect x="56" y="81" fill="#CCCCCC" width="18" height="2"/>
			</g>
			<g>
				<rect x="89" y="77" fill="#CCCCCC" width="10" height="2"/>
			</g>
			<g>
				<rect x="61" y="77" fill="#CCCCCC" width="26" height="2"/>
			</g>
			<g>
				<rect x="52" y="77" fill="#CCCCCC" width="7" height="2"/>
			</g>
		</g>
		<g id="line6" class="line6">
			<g>
				<rect x="46" y="89" fill="#CCCCCC" width="11" height="2"/>
			</g>
			<g>
				<rect x="52" y="85" fill="#CCCCCC" width="10" height="2"/>
			</g>
			<g>
				<rect x="64" y="85" fill="#CCCCCC" width="19" height="2"/>
			</g>
			<g>
				<rect x="85" y="85" fill="#CCCCCC" width="19" height="2"/>
			</g>
			<g>
				<rect x="59" y="89" fill="#CCCCCC" width="6" height="2"/>
			</g>
		</g>
<!-- 		<g id="line7" class="line7">
			<rect x="39" y="93" fill="#007AFF" width="15" height="2"/>
		</g> -->
		<g id="computer">
			<path fill="#CCCCCC" d="M128,108H12V26h116V108z M14,106h112V28H14V106z"/>
			<path fill="#CCCCCC" d="M122,102H18V32h104V102z M20,100h100V34H20V100z"/>
			<rect x="20" y="34" fill="#007AFF" width="100" height="7"/>
			<path fill="#CCCCCC" d="M138,115H2v-9h136V115z M4,113h132v-5H4V113z"/>
			<circle fill="#FFFFFF" cx="24.5" cy="37.5" r="1.5"/>
			<circle fill="#FFFFFF" cx="29.5" cy="37.5" r="1.5"/>
			<circle fill="#FFFFFF" cx="34.5" cy="37.5" r="1.5"/>
			<rect x="20" y="41" fill="#F2F2F2" width="15" height="59"/>
			<path fill="#CCCCCC" d="M84,111H56v-5h28V111z M58,109h24v-1H58V109z"/>
			<circle fill="#CCCCCC" cx="72" cy="30" r="1"/>
		</g>
		</svg>
