<?xml version="1.0" encoding="utf-8"?>
<!-- Generator: Adobe Illustrator 17.1.0, SVG Export Plug-In . SVG Version: 6.00 Build 0)  -->
<!DOCTYPE svg PUBLIC "-//W3C//DTD SVG 1.1//EN" "http://www.w3.org/Graphics/SVG/1.1/DTD/svg11.dtd">
<svg version="1.1" id="Layer_1" xmlns="http://www.w3.org/2000/svg" xmlns:xlink="http://www.w3.org/1999/xlink" x="0px" y="0px"
			 viewBox="0 0 140 140" enable-background="new 0 0 140 140" xml:space="preserve">
		<g id="frame" class="ratio_frame">
			<rect x="11" y="30" fill="#FFFFFF" stroke="#CCCCCC" stroke-width="2" stroke-miterlimit="10" width="117" height="80"/>
			<rect x="11" y="30" fill="#F2F2F2" stroke="#CCCCCC" stroke-width="2" stroke-miterlimit="10" width="117" height="9"/>
			<circle fill="#CCCCCC" cx="123.5" cy="34.5" r="1.5"/>
			<circle fill="#CCCCCC" cx="118.5" cy="34.5" r="1.5"/>
			<circle fill="#CCCCCC" cx="113.5" cy="34.5" r="1.5"/>
		</g>
		<g id="image" class="ratio_image">
			<rect x="18" y="71" fill="#FFFFFF" stroke="#CCCCCC" stroke-width="2" stroke-miterlimit="10" width="31" height="25"/>
			<circle fill="#FFFFFF" stroke="#CCCCCC" stroke-width="2" stroke-miterlimit="10" cx="40.5" cy="78.5" r="2.5"/>
			<polyline fill="#FFFFFF" stroke="#CCCCCC" stroke-width="2" stroke-miterlimit="10" points="18,79 23,77 31,89 36,85 45,96 	"/>
		</g>
		<g id="text" class="ratio_text">
			<line fill="none" stroke="#CCCCCC" stroke-width="2" stroke-miterlimit="10" x1="74" y1="71" x2="119" y2="71"/>
			<line fill="none" stroke="#CCCCCC" stroke-width="2" stroke-miterlimit="10" x1="74" y1="76" x2="119" y2="76"/>
			<line fill="none" stroke="#CCCCCC" stroke-width="2" stroke-miterlimit="10" x1="74" y1="81" x2="119" y2="81"/>
			<line fill="none" stroke="#CCCCCC" stroke-width="2" stroke-miterlimit="10" x1="62" y1="91" x2="119" y2="91"/>
			<line fill="none" stroke="#CCCCCC" stroke-width="2" stroke-miterlimit="10" x1="62" y1="96" x2="119" y2="96"/>
			<line fill="none" stroke="#CCCCCC" stroke-width="2" stroke-miterlimit="10" x1="62" y1="86" x2="119" y2="86"/>
			<polyline fill="#FFFFFF" stroke="#CCCCCC" stroke-width="2" stroke-miterlimit="10" points="63,82 63,71 69,71 69,82 	"/>
			<line fill="none" stroke="#CCCCCC" stroke-width="2" stroke-miterlimit="10" x1="63" y1="77" x2="69" y2="77"/>
		</g>
		<g id="head" class="ratio_head">
			<rect x="110" y="49" fill="#FFFFFF" stroke="#CCCCCC" stroke-width="2" stroke-miterlimit="10" width="8" height="2"/>
			<rect x="98" y="49" fill="#FFFFFF" stroke="#CCCCCC" stroke-width="2" stroke-miterlimit="10" width="8" height="2"/>
			<rect x="86" y="49" fill="#FFFFFF" stroke="#CCCCCC" stroke-width="2" stroke-miterlimit="10" width="8" height="2"/>
			<rect x="74" y="49" fill="#FFFFFF" stroke="#CCCCCC" stroke-width="2" stroke-miterlimit="10" width="8" height="2"/>
			<circle fill="#FFFFFF" stroke="#CCCCCC" stroke-width="2" stroke-miterlimit="10" cx="24" cy="50" r="5"/>
			<line fill="none" stroke="#CCCCCC" stroke-width="2" stroke-miterlimit="10" x1="11" y1="61" x2="128" y2="61"/>
		</g>
		<g id="box" class="ratio_box">
			<polyline fill="none" stroke="#007AFF" stroke-width="2" stroke-miterlimit="10" points="37,37 54,37 54,54 	"/>
			<rect x="45" y="54" fill="none" stroke="#007AFF" stroke-width="2" stroke-miterlimit="10" width="9" height="12"/>
			<rect x="9" y="37" fill="none" stroke="#007AFF" stroke-width="2" stroke-miterlimit="10" width="28" height="29"/>
			<rect x="9" y="66" fill="none" stroke="#007AFF" stroke-width="2" stroke-miterlimit="10" width="45" height="46"/>
			<rect x="54" y="37" fill="none" stroke="#007AFF" stroke-width="2" stroke-miterlimit="10" width="76" height="75"/>
			<rect x="37" y="54" fill="none" stroke="#007AFF" stroke-width="2" stroke-miterlimit="10" width="8" height="6"/>
			<rect x="37" y="60" fill="none" stroke="#007AFF" stroke-width="2" stroke-miterlimit="10" width="8" height="6"/>
		</g>
		<path id="line" class="ratio_line" fill="none" stroke="#007AFF" stroke-width="2" stroke-miterlimit="10" d="M42,60c1.9,0,3.1-1.2,3-3l0,0
			c0-1.9-1.2-3-3-3l0,0c-2.9,0-5,2-5,5l0,0c0,3.7,3.3,7,7,7l0,0c6.1,0,10-5.9,10-12l0,0c0-9.8-6.6-17-16.4-17l0,0
			C21.8,37,9,49.8,9,65.7l0,0C9,91.5,29.5,112,55.2,112l0,0c41.6,0,74.8-33.3,74.8-75"/>
		</svg>
