<svg xmlns="http://www.w3.org/2000/svg" viewBox="0 0 235 35">
	<path fill="#2b2f33" d="M2.6,7.3h6.8v20.3H2.6V7.3z"/>
	<path fill="#2b2f33" d="M11.7,7.3h6.4l7.2,9v-9H32v20.3h-6l-7.5-9.4v9.4h-6.7V7.3z"/>
	<path fill="#2b2f33" d="M34.3,7.3h17v5.8H41.1v2.6h9.5V21h-9.5v6.6h-6.8V7.3z"/>
	<path fill="#2b2f33" d="M52.8,18.5V7.3h6.9v11.1c0,2.5,1.3,3.6,3.1,3.6c1.8,0,3.1-1,3.1-3.5V7.3h6.9v11.1c0,6.9-4,9.7-10.1,9.7
		C56.7,28.1,52.8,25.3,52.8,18.5z"/>
	<path fill="#2b2f33" d="M75,7.3h6.8v14.5h9.5v5.8H75V7.3z"/>
	<path fill="#2b2f33" d="M92.8,7.3h6.8v14.5h9.5v5.8H92.8V7.3z"/>
	<path fill="#2b2f33" d="M110.6,7.3h7.1l4.4,7.1l4.4-7.1h7.1v20.3h-6.8V17.6l-4.7,7.2h-0.1l-4.7-7.2v10.1h-6.6V7.3z"/>
	<path fill="#2b2f33" d="M135.3,17.6L135.3,17.6c0-5.9,4.8-10.6,11.1-10.6s11.1,4.6,11.1,10.5v0.1c0,5.9-4.8,10.6-11.1,10.6
		S135.3,23.4,135.3,17.6z M150.6,17.6L150.6,17.6c0-2.5-1.7-4.6-4.3-4.6c-2.6,0-4.2,2.1-4.2,4.5v0.1c0,2.4,1.7,4.6,4.3,4.6
		C149,22.1,150.6,19.9,150.6,17.6z"/>
	<path fill="#2b2f33" d="M159.3,7.3h11.4c2.8,0,4.6,0.6,5.8,1.8c0.7,0.7,1.2,1.8,1.2,3.2v0.1c0,2.4-1.5,3.9-3.6,4.6
		c2.6,0.8,4.3,2.1,4.3,4.9V22c0,3.2-2.7,5.6-7.8,5.6h-11.3V7.3z M171,13.9c0-0.9-0.7-1.4-2.2-1.4h-2.9v2.8h3
		C170.3,15.3,171,14.8,171,13.9L171,13.9z M169.3,19.5h-3.4v3h3.4c1.5,0,2.2-0.6,2.2-1.5V21C171.5,20.1,170.8,19.5,169.3,19.5z"/>
	<path fill="#2b2f33" d="M179.9,7.3h6.8v20.3h-6.8V7.3z"/>
	<path fill="#2b2f33" d="M189.1,7.3h6.8v14.5h9.5v5.8h-16.3V7.3z"/>
	<path fill="#2b2f33" d="M206.9,7.3h17.3v5.6h-10.6V15h9.9v4.9h-9.9v2.2h10.8v5.6h-17.5V7.3z"/>
	<path fill="#2b2f33" d="M225.7,21h6.7v6.7h-6.7V21z"/>
</svg>
