<?xml version="1.0" encoding="utf-8"?>
<!-- Generator: Adobe Illustrator 18.0.0, SVG Export Plug-In . SVG Version: 6.00 Build 0)  -->
<!DOCTYPE svg PUBLIC "-//W3C//DTD SVG 1.1//EN" "http://www.w3.org/Graphics/SVG/1.1/DTD/svg11.dtd">
<svg version="1.1" id="Layer_1" xmlns="http://www.w3.org/2000/svg" xmlns:xlink="http://www.w3.org/1999/xlink" x="0px" y="0px"
	 viewBox="0 0 19 54" enable-background="new 0 0 19 54" xml:space="preserve">
<path id="arrow" fill="#333333" d="M14.8,46.3l-5.4,4.9L4,46.3c-0.5-0.5-1.3-0.5-1.8,0s-0.5,1.2,0,1.6l6.2,5.7
	c0.5,0.5,1.3,0.5,1.8,0l6.2-5.7c0.5-0.5,0.5-1.2,0-1.6C16.1,45.9,15.3,45.9,14.8,46.3z"/>
<g id="mouse_1_">
	<path id="frame" d="M9.5,2C13.6,2,17,5.4,17,9.5v7c0,4.1-3.4,7.5-7.5,7.5S2,20.6,2,16.5v-7C2,5.4,5.4,2,9.5,2 M9.5,0
		C4.3,0,0,4.3,0,9.5v7C0,21.7,4.3,26,9.5,26s9.5-4.3,9.5-9.5v-7C19,4.3,14.7,0,9.5,0L9.5,0z"/>
	<path id="scroll" d="M9,5h1c0.6,0,1,0.4,1,1v2c0,0.6-0.4,1-1,1H9C8.4,9,8,8.6,8,8V6C8,5.4,8.4,5,9,5z"/>
</g>
</svg>
