<?xml version="1.0" encoding="utf-8"?>
<!-- Generator: Adobe Illustrator 18.0.0, SVG Export Plug-In . SVG Version: 6.00 Build 0)  -->
<!DOCTYPE svg PUBLIC "-//W3C//DTD SVG 1.1//EN" "http://www.w3.org/Graphics/SVG/1.1/DTD/svg11.dtd">
<svg version="1.1" id="Layer_1" xmlns="http://www.w3.org/2000/svg" xmlns:xlink="http://www.w3.org/1999/xlink" x="0px" y="0px"
	 viewBox="0 0 360 180" enable-background="new 0 0 360 180" xml:space="preserve">
<g>
	<g>
		<path fill="#FFFFFF" d="M130.8,79.4v-13H90.6v47.3h40.5v-13h-25.1v-5.2h23V84.1h-23v-4.8C106.1,79.4,130.8,79.4,130.8,79.4z
			 M65.2,66.3H49.4v47.3h37.9v-13.5H65.2V66.3z M182.3,66.3h-17.6l-6.9,11.3l-6.8-11.3h-17.9l15.3,23.3l-15.9,24.1h17.6l7.6-12.3
			l7.5,12.3h17.9l-15.9-24.3L182.3,66.3z M39.9,70.5c-1.8-1.4-4.1-2.5-6.7-3.2c-2.6-0.7-5.5-1.1-8.6-1.1H3.5v47.3h15.7v-12.8h5.2
			c3.2,0,6.1-0.4,8.8-1.1c2.6-0.8,4.9-1.9,6.8-3.4c1.9-1.5,3.4-3.3,4.4-5.5c1-2.2,1.6-4.7,1.6-7.6v-0.1c0-2.8-0.5-5.3-1.6-7.4
			S41.7,71.9,39.9,70.5z M30.3,84.3c0,1.7-0.6,3-1.9,3.9c-1.2,0.9-2.9,1.3-4.9,1.3h-4.3V79h4.3c2.1,0,3.8,0.4,4.9,1.3
			c1.2,0.9,1.7,2.2,1.7,3.9v0.2H30.3z M298,72.4c-2.3-2.2-5.1-4-8.2-5.2c-3.1-1.3-6.5-1.9-10.1-1.9c-3.7,0-7.1,0.6-10.1,1.9
			c-3.2,1.3-5.9,3.1-8.2,5.3c-2.3,2.2-4.2,4.9-5.5,7.9c-1.3,3-2,6.2-2,9.6v0.1c0,3.5,0.7,6.7,2,9.6c1.3,3,3.1,5.6,5.4,7.9
			c2.3,2.2,5,4,8.2,5.2c3.1,1.3,6.5,1.9,10.1,1.9c3.7,0,7.1-0.6,10.1-1.9c3.2-1.3,5.9-3.1,8.2-5.3c2.3-2.2,4.1-4.9,5.5-7.9
			c1.3-3,2-6.2,2-9.6v-0.1c0-3.4-0.7-6.7-2-9.6C302.2,77.3,300.4,74.7,298,72.4z M289.5,90.1c0,1.4-0.2,2.7-0.7,4
			c-0.4,1.3-1.1,2.4-2,3.4s-1.9,1.8-3.1,2.3c-1.2,0.6-2.6,0.9-4.1,0.9c-1.5,0-2.9-0.3-4.1-0.9c-1.2-0.6-2.3-1.4-3.1-2.4
			c-0.9-1-1.5-2.1-2-3.4c-0.5-1.3-0.7-2.6-0.7-4v-0.1c0-1.4,0.2-2.7,0.7-4c0.5-1.3,1.1-2.4,2-3.4s1.9-1.8,3.1-2.4
			c1.2-0.6,2.6-0.9,4.1-0.9c1.5,0,2.9,0.3,4.1,0.9c1.2,0.6,2.3,1.4,3.1,2.4c0.9,1,1.5,2.1,2,3.4c0.5,1.3,0.7,2.6,0.7,4V90.1z
			 M340.9,66.3v20.9l-16.7-20.9h-14.7v47.3H325V91.8l17.5,21.9h14V66.3H340.9z M184.8,113.7h15.7V66.3h-15.7V113.7z M237.3,113.7
			c2.3-0.7,4.4-1.6,6.2-2.8c1.8-1.2,3.4-2.5,4.8-4.1c1.3-1.6,2.5-3.2,3.5-5l-13-7.4c-1,1.8-2.2,3.2-3.5,4.3
			c-1.4,1.1-3.2,1.7-5.4,1.7c-1.3,0-2.5-0.3-3.6-0.8c-1.1-0.5-2-1.2-2.8-2.2c-0.8-0.9-1.4-2-1.8-3.3c-0.4-1.3-0.6-2.7-0.6-4.3v-0.1
			c0-1.4,0.2-2.7,0.6-4c0.4-1.3,1-2.4,1.8-3.3c0.8-1,1.7-1.7,2.8-2.2c1.1-0.5,2.3-0.8,3.7-0.8c2.2,0,3.9,0.5,5.2,1.6
			c1.3,1.1,2.5,2.5,3.4,4.2l13-7.7c-1-1.8-2.2-3.5-3.5-5c-1.4-1.5-3-2.8-4.7-3.9c-1.8-1.1-3.8-1.9-5.9-2.5c-2.2-0.6-4.6-0.9-7.2-0.9
			c-3.5,0-6.8,0.6-9.8,1.9c-3.1,1.3-5.7,3-8,5.2s-4.1,4.9-5.4,7.9c-1.3,3-1.9,6.3-1.9,9.8v0.1c0,3.7,0.7,7,2,10
			c1.3,3,3.1,5.6,5.4,7.8c2.3,2.2,4.9,3.9,7.8,5c3,1.2,6.1,1.8,9.3,1.8C232.4,114.7,235,114.4,237.3,113.7z M93.3,2.9h44.5V0H90.4
			v46.6h2.9V2.9z M266.7,46.6h2.9V0H225v2.9h41.7V46.6z M266.7,177.1H225v2.9h44.6v-45.1h-2.9V177.1z M93.3,134.9h-2.9V180h47.3
			v-2.9H93.3V134.9z"/>
	</g>
</g>
</svg>
